#!OML:ASF I:\Actors\actors\Patient Classification 1\Patient 1\Session 1\Subject1.ASF
:FULLY-SPECIFIED
:DEGREES
1193
root 0.428336 17.5602 7.98994 12.1446 4.36653 -5.49464
lowerback 2.40887 3.56655 2.28862
upperback -9.90371 5.18687 1.0402
thorax -11.882 2.37606 -0.801379
lowerneck -10.2664 -13.1073 -8.76319
upperneck 16.0239 -18.007 7.89169
head 8.15932 -8.47344 1.95505
rclavicle 8.1129e-015 1.23246e-014
rhumerus 5.93523 4.25335 -72.9807
rradius 63.4718
rwrist 40.9115
rhand -28.0677 -49.1554
rfingers 7.12502
rthumb -1.4513 -79.1302
lclavicle 8.1129e-015 1.23246e-014
lhumerus -46.3922 -16.269 94.9499
lradius 74.6833
lwrist 11.4513
lhand -25.795 -22.306
lfingers 7.12502
lthumb 0.743745 7.67242
rfemur -3.21382 32.8045 16.8787
rtibia -1.69204
rfoot -21.8939 -38.8672
rtoes 13.7494
lfemur 1.9804 -51.8528 -16.7937
ltibia -6.19431
lfoot -25.1631 56.0965
ltoes 21.8183
1194
root 0.420614 17.5634 8.00549 12.1917 4.49367 -5.9798
lowerback 2.07261 3.50056 2.89211
upperback -9.90472 5.13614 1.07987
thorax -11.6309 2.30392 -1.05943
lowerneck -10.172 -13.1496 -8.80714
upperneck 15.9081 -18.1003 8.11166
head 8.13874 -8.5072 2.02523
rclavicle 1.61016e-014 3.81667e-014
rhumerus 4.89912 4.41415 -73.0274
rradius 64.4298
rwrist 40.0293
rhand -28.0326 -48.8565
rfingers 7.12502
rthumb -1.41743 -78.8316
lclavicle 1.61016e-014 3.81667e-014
lhumerus -46.366 -16.4226 94.9574
lradius 74.5971
lwrist 11.3354
lhand -25.6606 -21.9126
lfingers 7.12502
lthumb 0.873568 8.06531
rfemur -3.2136 32.6737 17.5254
rtibia -1.69201
rfoot -21.7679 -38.7919
rtoes 13.7646
lfemur 1.8576 -51.9421 -16.0826
ltibia -6.19773
lfoot -24.81 56.2953
ltoes 21.0964
1195
root 0.409247 17.5657 8.01608 12.1848 4.43531 -6.18274
lowerback 1.90046 3.48952 3.08625
upperback -9.88734 5.12612 1.07292
thorax -11.4889 2.28456 -1.15908
lowerneck -9.98972 -13.2303 -8.87731
upperneck 15.6798 -18.2416 8.35257
head 8.07465 -8.56949 2.10717
rclavicle 1.50579e-014 1.76918e-014
rhumerus 3.47978 4.1391 -73.3385
rradius 65.8266
rwrist 39.6623
rhand -27.897 -48.0208
rfingers 7.12502
rthumb -1.28647 -77.9967
lclavicle 1.50579e-014 1.76918e-014
lhumerus -46.2993 -16.6374 94.9941
lradius 74.4807
lwrist 10.9819
lhand -25.4264 -21.7389
lfingers 7.12502
lthumb 1.09979 8.23806
rfemur -3.22063 32.4898 17.8304
rtibia -1.65334
rfoot -21.4647 -38.6218
rtoes 13.1693
lfemur 1.9816 -51.9224 -15.8867
ltibia -6.24225
lfoot -24.9757 56.3348
ltoes 20.9989
1196
root 0.395009 17.5674 8.02359 12.1414 4.21021 -6.18967
lowerback 1.87767 3.521 2.97553
upperback -9.86869 5.15563 1.05509
thorax -11.4597 2.3088 -1.1183
lowerneck -9.75602 -13.2892 -9.00354
upperneck 15.3643 -18.3432 8.62396
head 7.97821 -8.61802 2.21727
rclavicle 1.21756e-015 2.78299e-015
rhumerus 1.43069 3.05236 -74.1453
rradius 67.8914
rwrist 40.2804
rhand -27.5081 -46.165
rfingers 7.12502
rthumb -0.910807 -76.1428
lclavicle 1.21756e-015 2.78299e-015
lhumerus -46.2629 -16.7982 95.0533
lradius 74.4309
lwrist 10.4813
lhand -25.1951 -21.5493
lfingers 7.12502
lthumb 1.32318 8.42638
rfemur -3.23703 32.3553 17.8901
rtibia -1.58147
rfoot -21.0736 -38.4078
rtoes 12.4105
lfemur 2.27436 -51.7863 -16.0251
ltibia -6.36702
lfoot -25.3373 56.3195
ltoes 21.2909
1197
root 0.381921 17.5696 8.03186 12.1285 4.00756 -6.20969
lowerback 1.84562 3.56978 2.89271
upperback -9.87462 5.21202 1.03871
thorax -11.4504 2.34318 -1.09449
lowerneck -9.47432 -13.3391 -9.11368
upperneck 14.9767 -18.4336 8.91286
head 7.84963 -8.66313 2.33709
rclavicle -1.72197e-014 -2.82274e-014
rhumerus 1.03696 4.54099 -73.1273
rradius 68.0957
rwrist 38.4389
rhand -27.5599 -45.6832
rfingers 7.12502
rthumb -0.960815 -75.6608
lclavicle -1.72197e-014 -2.82274e-014
lhumerus -46.3339 -16.9594 95.1249
lradius 74.5203
lwrist 10.0551
lhand -24.8416 -21.3076
lfingers 7.12502
lthumb 1.66453 8.66564
rfemur -3.28885 32.1911 17.9467
rtibia -1.50549
rfoot -20.7277 -38.151
rtoes 11.9178
lfemur 2.46639 -51.6671 -16.0873
ltibia -6.45026
lfoot -25.5346 56.361
ltoes 21.3761
1198
root 0.369482 17.5708 8.04073 12.1622 3.88468 -6.19833
lowerback 1.7588 3.60053 2.74981
upperback -9.89273 5.24055 1.05135
thorax -11.431 2.37187 -1.00019
lowerneck -9.21439 -13.3899 -9.29083
upperneck 14.5983 -18.4991 9.13103
head 7.72555 -8.70505 2.44565
rclavicle -8.87077e-015 2.14687e-014
rhumerus 0.110773 5.52387 -72.4443
rradius 68.8064
rwrist 37.1038
rhand -27.0871 -44.1188
rfingers 7.12502
rthumb -0.504182 -74.098
lclavicle -8.87077e-015 2.14687e-014
lhumerus -46.4602 -17.0171 95.2284
lradius 74.6749
lwrist 9.82611
lhand -24.3541 -21.2055
lfingers 7.12502
lthumb 2.13534 8.7636
rfemur -3.38158 32.0803 17.9428
rtibia -1.44249
rfoot -20.5272 -37.9843
rtoes 11.6258
lfemur 2.51105 -51.6337 -16.086
ltibia -6.44262
lfoot -26.1962 56.2661
ltoes 21.8794
1199
root 0.356718 17.5702 8.05091 12.2658 3.86668 -6.09059
lowerback 1.58075 3.58148 2.50186
upperback -9.90026 5.1927 1.09607
thorax -11.3581 2.37665 -0.798707
lowerneck -9.19818 -13.4408 -9.31841
upperneck 14.3472 -18.5339 9.10113
head 7.64303 -8.73209 2.4425
rclavicle -1.97294e-014 -3.57812e-015
rhumerus -0.932387 6.18237 -71.8967
rradius 69.7625
rwrist 36.1406
rhand -26.0588 -41.9616
rfingers 7.12502
rthumb 0.488977 -71.9408
lclavicle -1.97294e-014 -3.57812e-015
lhumerus -46.5423 -16.8995 95.3387
lradius 74.8618
lwrist 9.72388
lhand -23.6764 -20.809
lfingers 7.12502
lthumb 2.78984 9.15249
rfemur -3.46899 32.0496 17.8049
rtibia -1.47421
rfoot -20.4768 -37.976
rtoes 11.6671
lfemur 2.36669 -51.7157 -16.0452
ltibia -6.39685
lfoot -26.468 56.2567
ltoes 21.9999
1200
root 0.343817 17.5683 8.06046 12.3084 3.9856 -6.01789
lowerback 1.47687 3.51645 2.34645
upperback -9.87739 5.09524 1.17399
thorax -11.2917 2.35001 -0.611543
lowerneck -9.1536 -13.5234 -9.44848
upperneck 13.9268 -18.5932 9.13354
head 7.51899 -8.77577 2.47496
rclavicle 8.46077e-015 -2.50469e-014
rhumerus -1.82269 6.65469 -71.3083
rradius 70.7532
rwrist 35.51
rhand -24.9214 -40.1645
rfingers 7.12502
rthumb 1.58745 -70.1383
lclavicle 8.46077e-015 -2.50469e-014
lhumerus -46.6029 -16.6816 95.4235
lradius 75.0856
lwrist 9.57175
lhand -23.0139 -20.2035
lfingers 7.12502
lthumb 3.42966 9.7487
rfemur -3.33856 32.0746 17.8094
rtibia -1.62944
rfoot -20.5823 -38.0798
rtoes 11.9809
lfemur 2.29689 -51.9329 -16.0421
ltibia -6.32329
lfoot -26.0809 56.4516
ltoes 21.4532
1201
root 0.332598 17.5615 8.06585 12.0602 4.25651 -6.55511
lowerback 1.70512 3.4376 2.93484
upperback -9.81961 5.0604 1.38251
thorax -11.3378 2.28908 -0.721635
lowerneck -8.92075 -13.5676 -9.5623
upperneck 13.3513 -18.6172 9.25306
head 7.31687 -8.80581 2.55399
rclavicle 2.78795e-014 3.27995e-014
rhumerus -2.60941 6.92465 -70.7126
rradius 71.8164
rwrist 35.259
rhand -23.5592 -39.21
rfingers 7.12502
rthumb 2.90303 -69.17
lclavicle 2.78795e-014 3.27995e-014
lhumerus -46.7326 -16.4486 95.4338
lradius 75.3099
lwrist 9.27816
lhand -22.56 -19.8715
lfingers 7.12502
lthumb 3.86798 10.0732
rfemur -2.85496 32.1936 18.765
rtibia -1.74183
rfoot -20.818 -38.2479
rtoes 12.1866
lfemur 2.69503 -52.1894 -15.6505
ltibia -6.37733
lfoot -25.7068 56.7152
ltoes 20.7942
1202
root 0.329933 17.5478 8.06449 11.5179 4.68416 -7.81639
lowerback 2.26624 3.33764 4.53178
upperback -9.72032 5.11193 1.71599
thorax -11.4736 2.18054 -1.28113
lowerneck -8.61728 -13.6209 -9.49911
upperneck 12.6898 -18.663 9.29957
head 7.05378 -8.84838 2.59192
rclavicle -7.31776e-015 3.88624e-014
rhumerus -3.18729 6.86201 -70.1971
rradius 72.8567
rwrist 35.4095
rhand -22.0856 -38.9296
rfingers 7.12502
rthumb 4.3261 -68.8654
lclavicle -7.31776e-015 3.88624e-014
lhumerus -46.8995 -16.1805 95.3542
lradius 75.5216
lwrist 8.88146
lhand -22.0991 -19.8657
lfingers 7.12502
lthumb 4.31312 10.0703
rfemur -2.13126 31.97 20.7252
rtibia -1.74905
rfoot -20.9412 -38.0982
rtoes 12.334
lfemur 3.49436 -52.481 -14.7236
ltibia -6.52689
lfoot -24.9845 57.1058
ltoes 19.648
1203
root 0.308336 17.5593 8.07633 11.9729 4.45898 -6.49979
lowerback 1.84135 3.32324 2.99084
upperback -9.74781 4.916 1.41681
thorax -11.3405 2.215 -0.706691
lowerneck -8.49332 -13.7136 -9.46742
upperneck 12.1605 -18.7656 9.38965
head 6.87813 -8.90629 2.62399
rclavicle -1.58034e-014 4.96962e-016
rhumerus -3.3881 6.30142 -69.8143
rradius 74.1505
rwrist 34.7339
rhand -20.5293 -39.1933
rfingers 7.12502
rthumb 5.8288 -69.0931
lclavicle -1.58034e-014 4.96962e-016
lhumerus -47.0552 -15.8755 95.2052
lradius 75.7355
lwrist 8.50597
lhand -21.717 -20.0806
lfingers 7.12502
lthumb 4.68205 9.84768
rfemur -2.64481 32.3508 18.9021
rtibia -1.75158
rfoot -21.5821 -38.259
rtoes 13.4626
lfemur 2.84587 -52.5851 -15.725
ltibia -6.30152
lfoot -25.9265 56.8771
ltoes 20.8016
